<svg width="30" height="30" viewBox="0 0 30 30" fill="none" xmlns="http://www.w3.org/2000/svg">
<path fill-rule="evenodd" clip-rule="evenodd" d="M15 27.1344C21.7017 27.1344 27.1344 21.7017 27.1344 15C27.1344 8.29834 21.7017 2.86557 15 2.86557C8.29834 2.86557 2.86557 8.29834 2.86557 15C2.86557 21.7017 8.29834 27.1344 15 27.1344ZM15 28.125C22.2487 28.125 28.125 22.2487 28.125 15C28.125 7.75126 22.2487 1.875 15 1.875C7.75126 1.875 1.875 7.75126 1.875 15C1.875 22.2487 7.75126 28.125 15 28.125Z" fill="#2667FF"/>
<path fill-rule="evenodd" clip-rule="evenodd" d="M17.2276 21.9523C17.3543 22.2252 17.2358 22.5492 16.9629 22.6759C15.7017 23.2615 14.4522 23.369 13.4284 22.8991C12.39 22.4224 11.713 21.4117 11.4906 20.0402L12.5661 19.8658C12.7458 20.9738 13.2534 21.6198 13.883 21.9088C14.5273 22.2046 15.4293 22.1867 16.504 21.6876C16.7769 21.5609 17.1009 21.6794 17.2276 21.9523Z" fill="#2667FF"/>
<path fill-rule="evenodd" clip-rule="evenodd" d="M15.7429 16.4856V14.2568H16.7335V17.4762H14.0094V16.4856H15.7429Z" fill="#2667FF"/>
<path d="M21.934 11.7806C21.934 12.3277 21.4905 12.7712 20.9434 12.7712C20.3963 12.7712 19.9528 12.3277 19.9528 11.7806C19.9528 11.2335 20.3963 10.79 20.9434 10.79C21.4905 10.79 21.934 11.2335 21.934 11.7806Z" fill="#2667FF"/>
<path d="M10.0471 11.7806C10.0471 12.3277 9.60365 12.7712 9.05658 12.7712C8.5095 12.7712 8.06601 12.3277 8.06601 11.7806C8.06601 11.2335 8.5095 10.79 9.05658 10.79C9.60365 10.79 10.0471 11.2335 10.0471 11.7806Z" fill="#2667FF"/>
</svg>
