<svg width="24" height="24" viewBox="0 0 24 24" fill="none" xmlns="http://www.w3.org/2000/svg">
<path d="M14.7461 7.69189C14.8822 7.69189 15.1141 7.71354 15.4419 7.75684C15.7697 7.80013 16.1284 7.92383 16.5181 8.12793C16.9139 8.32585 17.2726 8.65674 17.5942 9.12061C17.5757 9.13916 17.486 9.20719 17.3252 9.32471C17.1644 9.43604 16.985 9.60303 16.7871 9.82568C16.5892 10.0422 16.416 10.3205 16.2676 10.6606C16.1191 10.9946 16.0449 11.3936 16.0449 11.8574C16.0449 12.3893 16.1377 12.8408 16.3232 13.2119C16.515 13.583 16.7345 13.883 16.9819 14.1118C17.2355 14.3345 17.4582 14.4984 17.6499 14.6035C17.8478 14.7087 17.953 14.7643 17.9653 14.7705C17.9591 14.7952 17.8787 15.0148 17.7241 15.4292C17.5757 15.8436 17.3283 16.3044 16.9819 16.8115C16.6789 17.2507 16.3511 17.6558 15.9985 18.0269C15.6522 18.3979 15.2347 18.5835 14.7461 18.5835C14.4183 18.5835 14.1493 18.5371 13.939 18.4443C13.7287 18.3454 13.5122 18.2495 13.2896 18.1567C13.0669 18.0578 12.7669 18.0083 12.3896 18.0083C12.0247 18.0083 11.7186 18.0578 11.4712 18.1567C11.23 18.2557 10.998 18.3547 10.7754 18.4536C10.5589 18.5526 10.3022 18.6021 10.0054 18.6021C9.55387 18.6021 9.15804 18.4227 8.81787 18.064C8.4777 17.7052 8.12826 17.2754 7.76953 16.7744C7.35514 16.1807 6.99951 15.457 6.70264 14.6035C6.41195 13.7438 6.2666 12.8779 6.2666 12.0059C6.2666 11.0719 6.44287 10.2896 6.79541 9.65869C7.14795 9.02165 7.59945 8.54232 8.1499 8.2207C8.70654 7.8929 9.28174 7.729 9.87549 7.729C10.1909 7.729 10.4878 7.78158 10.7661 7.88672C11.0444 7.98568 11.3042 8.08773 11.5454 8.19287C11.7928 8.29801 12.0155 8.35059 12.2134 8.35059C12.4051 8.35059 12.6278 8.29492 12.8813 8.18359C13.1349 8.07227 13.4194 7.96403 13.7349 7.85889C14.0503 7.74756 14.3874 7.69189 14.7461 7.69189ZM14.2358 6.51367C13.9946 6.80436 13.6916 7.04867 13.3267 7.24658C12.9618 7.43831 12.6154 7.53418 12.2876 7.53418C12.2196 7.53418 12.1546 7.52799 12.0928 7.51562C12.0866 7.49707 12.0804 7.46305 12.0742 7.41357C12.068 7.3641 12.0649 7.31152 12.0649 7.25586C12.0649 6.88477 12.1453 6.52604 12.3062 6.17969C12.467 5.82715 12.6494 5.53646 12.8535 5.30762C13.1133 4.99837 13.4411 4.7417 13.8369 4.5376C14.2327 4.3335 14.61 4.22526 14.9688 4.21289C14.9873 4.29329 14.9966 4.38916 14.9966 4.50049C14.9966 4.87158 14.9255 5.2334 14.7832 5.58594C14.641 5.93229 14.4585 6.24154 14.2358 6.51367Z" fill="black"/>
</svg>
