<svg width="24" height="25" viewBox="0 0 24 25" fill="none" xmlns="http://www.w3.org/2000/svg">
<path d="M5.5 11C5.5 8.79086 7.29086 7 9.5 7H14.5C16.7091 7 18.5 8.79086 18.5 11V18C18.5 20.2091 16.7091 22 14.5 22H9.5C7.29086 22 5.5 20.2091 5.5 18V11Z" stroke="#222222" stroke-linecap="round" stroke-linejoin="round"/>
<path d="M8.5 13H7.5C6.39543 13 5.5 12.1046 5.5 11V11C5.5 8.79086 7.29086 7 9.5 7H14.5C16.7091 7 18.5 8.79086 18.5 11V11C18.5 12.1046 17.6046 13 16.5 13H15.5M10.5 13H13.5" stroke="#222222" stroke-linecap="round" stroke-linejoin="round"/>
<path d="M14.5 20H9.5C8.39543 20 7.5 19.1046 7.5 18C7.5 17.4477 7.94772 17 8.5 17H15.5C16.0523 17 16.5 17.4477 16.5 18C16.5 19.1046 15.6046 20 14.5 20Z" stroke="#222222" stroke-linecap="round" stroke-linejoin="round"/>
<path d="M18.5 15H19.5C20.6046 15 21.5 15.8954 21.5 17V18C21.5 19.1046 20.6046 20 19.5 20H18" stroke="#222222" stroke-linecap="round" stroke-linejoin="round"/>
<path d="M5.5 15H4.5C3.39543 15 2.5 15.8954 2.5 17V18C2.5 19.1046 3.39543 20 4.5 20H6" stroke="#222222" stroke-linecap="round" stroke-linejoin="round"/>
<path d="M9.5 7V6C9.5 4.89543 10.3954 4 11.5 4H12.5C13.6046 4 14.5 4.89543 14.5 6V7" stroke="#222222" stroke-linecap="round" stroke-linejoin="round"/>
</svg>
