<svg width="24" height="24" viewBox="0 0 24 24" fill="none" xmlns="http://www.w3.org/2000/svg">
<path d="M12 4C7.584 4 4 7.584 4 12C4 16.416 7.584 20 12 20C16.416 20 20 16.416 20 12C20 7.584 16.416 4 12 4ZM13.128 16.872V18.4H10.992V16.856C9.624 16.568 8.464 15.688 8.376 14.136H9.944C10.024 14.976 10.6 15.632 12.064 15.632C13.632 15.632 13.984 14.848 13.984 14.36C13.984 13.696 13.632 13.072 11.848 12.648C9.864 12.168 8.504 11.352 8.504 9.712C8.504 8.336 9.824 7.424 11.2 7.128V5.584H12.8V7.144C14.288 7.504 15.36 8.648 15.408 9.872H13.84C13.8 8.984 13.328 8.376 12.064 8.376C10.864 8.376 10.144 8.92 10.144 9.688C10.144 10.36 10.664 10.8 12.28 11.216C13.896 11.632 15.624 12.328 15.624 14.344C15.616 15.808 14.52 16.608 13.128 16.872Z" fill="#64758B"/>
</svg>
