<svg width="16" height="16" viewBox="0 0 16 16" fill="none" xmlns="http://www.w3.org/2000/svg">
<path d="M4.02548 9.50316L4.02536 9.50303L4.02169 9.50694C4.01562 9.51301 4.00958 9.51903 4.00358 9.52502C3.89528 9.6331 3.79939 9.72878 3.73182 9.84813C3.66424 9.96749 3.63153 10.0989 3.59457 10.2474C3.5921 10.2574 3.58961 10.2674 3.58709 10.2774L3.14474 12.0469C3.14326 12.0528 3.14177 12.0587 3.14028 12.0646C3.11412 12.1691 3.08618 12.2807 3.07701 12.3744C3.06692 12.4775 3.06927 12.6516 3.20888 12.7912C3.34849 12.9308 3.52252 12.9331 3.62568 12.923C3.71937 12.9139 3.83093 12.8859 3.93539 12.8598C3.94134 12.8583 3.94728 12.8568 3.95319 12.8553L5.7226 12.413C5.73268 12.4104 5.74268 12.4079 5.75261 12.4055C5.9011 12.3685 6.03255 12.3358 6.15191 12.2682C6.27126 12.2006 6.36694 12.1048 6.47503 11.9965C6.48225 11.9892 6.48954 11.9819 6.49689 11.9746L11.2929 7.17851L11.3084 7.16301C11.5174 6.95407 11.6975 6.77404 11.8222 6.61049C11.956 6.43521 12.0572 6.24026 12.0572 6C12.0572 5.75974 11.956 5.56479 11.8222 5.38952C11.6975 5.22596 11.5174 5.04594 11.3084 4.837L11.2929 4.82149L11.1786 4.70711L10.9429 4.94281L11.1786 4.70711L11.163 4.69159C10.9541 4.48263 10.7741 4.30259 10.6105 4.1778C10.4352 4.04407 10.2403 3.94281 10 3.94281C9.75978 3.94281 9.56484 4.04407 9.38956 4.1778C9.226 4.30259 9.04598 4.48263 8.83705 4.69159L8.82153 4.70711L4.02548 9.50316Z" stroke="#64758B" stroke-width="0.666667"/>
<path d="M8.33337 5.00033L10.3334 3.66699L12.3334 5.66699L11 7.66699L8.33337 5.00033Z" fill="#64758B"/>
</svg>
