<svg width="12" height="13" viewBox="0 0 12 13" fill="none" xmlns="http://www.w3.org/2000/svg">
<path d="M5.38018 7.43989C5.36447 7.49755 5.30193 7.52854 5.24654 7.5061L0.840159 5.72128C0.808606 5.7085 0.785754 5.6805 0.77955 5.64703L0.585954 4.60268C0.572557 4.5304 0.639295 4.46897 0.710212 4.48829L5.70988 5.85053C5.76301 5.86501 5.79435 5.91982 5.77987 5.97295L5.38018 7.43989Z" fill="#0F172A" stroke="#0F172A" stroke-width="0.110794"/>
<path d="M6.61982 7.44771C6.63553 7.50536 6.69807 7.53635 6.75346 7.51391L11.1598 5.72909C11.1914 5.71631 11.2142 5.68832 11.2205 5.65484L11.414 4.61049C11.4274 4.53822 11.3607 4.47678 11.2898 4.4961L6.29012 5.85834C6.23699 5.87282 6.20565 5.92763 6.22013 5.98076L6.61982 7.44771Z" fill="#0F172A" stroke="#0F172A" stroke-width="0.110794"/>
<path d="M8.6676 2.1956C8.66169 2.21345 8.64713 2.2271 8.62892 2.23182L6.13611 2.87865C6.12703 2.881 6.1175 2.88102 6.10842 2.87868L3.58715 2.23126C3.56934 2.22668 3.55496 2.21357 3.54876 2.19625L3.12545 1.01247C3.11095 0.971922 3.14623 0.93106 3.18846 0.939494L6.08956 1.51891C6.11127 1.52325 6.13363 1.5232 6.15533 1.51878L8.99579 0.939345C9.0375 0.930836 9.07283 0.970603 9.05946 1.01102L8.6676 2.1956Z" fill="#0F172A" stroke="#0F172A" stroke-width="0.110794"/>
<path d="M7.08059 11.5357C7.08059 12.0673 6.6496 12.4983 6.11796 12.4983C5.58631 12.4983 5.15533 12.0673 5.15533 11.5357L5.15533 2.42882H7.08059L7.08059 11.5357Z" fill="#0F172A" stroke="#0F172A" stroke-width="0.110794"/>
</svg>
