<svg width="24" height="24" viewBox="0 0 24 24" fill="none" xmlns="http://www.w3.org/2000/svg">
<path d="M12.1633 10.5449V13.6431H16.5567C16.3638 14.6395 15.7848 15.4831 14.9166 16.0504L17.5659 18.065C19.1096 16.6686 20.0001 14.6177 20.0001 12.1814C20.0001 11.6141 19.9482 11.0686 19.8517 10.545L12.1633 10.5449Z" fill="#4285F4"/>
<path d="M7.58835 13.5234L6.99082 13.9717L4.87573 15.5862C6.21897 18.1971 8.97204 20.0007 12.1631 20.0007C14.3672 20.0007 16.2151 19.288 17.5658 18.0662L14.9164 16.0517C14.1891 16.5317 13.2614 16.8226 12.1631 16.8226C10.0407 16.8226 8.23738 15.419 7.59169 13.5281L7.58835 13.5234Z" fill="#34A853"/>
<path d="M4.87564 8.41406C4.31908 9.49038 4 10.7049 4 11.9995C4 13.294 4.31908 14.5085 4.87564 15.5849C4.87564 15.5921 7.59186 13.5194 7.59186 13.5194C7.42859 13.0394 7.33209 12.5304 7.33209 11.9994C7.33209 11.4684 7.42859 10.9593 7.59186 10.4793L4.87564 8.41406Z" fill="#FBBC05"/>
<path d="M12.1633 7.18545C13.3656 7.18545 14.4342 7.59271 15.2877 8.37817L17.6253 6.0873C16.2079 4.79278 14.3675 4 12.1633 4C8.97221 4 6.21897 5.79636 4.87573 8.41454L7.59187 10.48C8.23747 8.58907 10.0409 7.18545 12.1633 7.18545Z" fill="#EA4335"/>
</svg>
