<svg width="32" height="32" viewBox="0 0 32 32" fill="none" xmlns="http://www.w3.org/2000/svg">
<path d="M1.11035 9.60292V6C1.11035 3.23858 3.34893 1 6.11035 1H9.49268" stroke="#0652DD" stroke-width="1.5" stroke-linecap="round"/>
<path d="M1.11041 22.3971V26C1.11041 28.7614 3.34899 31 6.11041 31H9.49274" stroke="#0652DD" stroke-width="1.5" stroke-linecap="round"/>
<path d="M30.8897 9.60292V6C30.8897 3.23858 28.6511 1 25.8897 1H22.5073" stroke="#0652DD" stroke-width="1.5" stroke-linecap="round"/>
<path d="M30.8897 22.3971V26C30.8897 28.7614 28.6511 31 25.8897 31H22.5073" stroke="#0652DD" stroke-width="1.5" stroke-linecap="round"/>
<path d="M20.9627 22.3154L18.8424 23.2578C17.0325 24.0622 14.9665 24.0622 13.1565 23.2578L11.0363 22.3154" stroke="#0652DD" stroke-width="1.5" stroke-linecap="round"/>
<path d="M16.6553 11.2861V16.5368C16.6553 17.4814 15.9944 18.2973 15.0703 18.4933L14.5656 18.6004" stroke="#0652DD" stroke-width="1.5" stroke-linecap="round"/>
<path d="M9.71292 11.2861L9.71292 13.8984" stroke="#0652DD" stroke-width="1.5" stroke-linecap="round"/>
<path d="M22.5072 11.2861L22.5072 13.8984" stroke="#0652DD" stroke-width="1.5" stroke-linecap="round"/>
</svg>
