<svg width="30" height="30" viewBox="0 0 30 30" fill="none" xmlns="http://www.w3.org/2000/svg">
<g clip-path="url(#clip0_352_4722)">
<path d="M18.1104 0.442218C16.0088 -0.0819902 13.7975 -0.156897 11.6457 0.307628C11.4794 0.343528 11.3737 0.507438 11.4096 0.673732C11.4455 0.840025 11.6094 0.945731 11.7757 0.909831C13.8364 0.464969 15.9591 0.53832 17.9783 1.04438C22.8069 2.25461 26.8261 5.88505 28.3569 10.6274C28.9489 12.4614 29.2004 14.4143 29.2508 16.4609C29.2549 16.631 29.3962 16.7655 29.5663 16.7613C29.7364 16.7571 29.8708 16.6159 29.8667 16.4458C29.8156 14.371 29.5612 12.3679 28.9545 10.4734C27.3648 5.50851 23.164 1.70281 18.1104 0.442218Z" fill="#2667FF"/>
<path d="M10.0824 1.3742C10.2464 1.32896 10.3427 1.15934 10.2975 0.995338C10.2522 0.83134 10.0826 0.735069 9.91861 0.780311C7.66829 1.40111 4.50276 3.54618 2.54643 6.41183C2.54567 6.41295 2.54492 6.41407 2.54417 6.4152C0.826382 9.00391 -0.250427 12.2571 0.0502152 15.4138C0.0505015 15.4168 0.0508319 15.4198 0.0512064 15.4228C0.123258 15.9992 0.244215 16.5746 0.365315 17.1506C0.620373 18.3638 0.876061 19.58 0.676766 20.8155C0.649674 20.9834 0.763865 21.1416 0.931819 21.1686C1.09977 21.1957 1.25789 21.0815 1.28498 20.9136C1.49331 19.6221 1.23463 18.3624 0.975899 17.1024C0.856244 16.5197 0.736578 15.9369 0.663088 15.3509C0.380327 12.368 1.39881 9.25621 3.05639 6.75752C4.9383 4.00186 7.9857 1.95263 10.0824 1.3742Z" fill="#2667FF"/>
<path d="M14.1247 2.06243C17.9921 1.82627 21.8587 3.4046 24.4555 6.42841C24.5663 6.55748 24.5515 6.75196 24.4225 6.86279C24.2934 6.97363 24.0989 6.95885 23.9881 6.82979C21.5187 3.95426 17.8393 2.45224 14.1604 2.67747C14.1591 2.67756 14.1578 2.67763 14.1565 2.67769C9.50407 2.90281 5.14708 6.05892 3.54449 10.4814C3.48653 10.6414 3.30988 10.724 3.14994 10.6661C2.98999 10.6081 2.90731 10.4315 2.96527 10.2715C4.65354 5.61259 9.22865 2.30016 14.1247 2.06243Z" fill="#2667FF"/>
<path d="M25.3939 7.77415C25.2991 7.63292 25.1077 7.59532 24.9665 7.69017C24.8252 7.78501 24.7876 7.97639 24.8825 8.11762C26.322 10.2611 26.9173 12.5937 27.1526 15.3617C27.167 15.5312 27.3161 15.657 27.4856 15.6426C27.6551 15.6282 27.7809 15.4791 27.7664 15.3096C27.526 12.481 26.9122 10.0348 25.3939 7.77415Z" fill="#2667FF"/>
<path d="M27.5605 16.6174C27.7303 16.6068 27.8765 16.7358 27.8872 16.9056C28.0033 18.7631 28.0043 20.8646 27.7988 22.4176C27.7765 22.5863 27.6217 22.7049 27.4531 22.6826C27.2844 22.6603 27.1658 22.5055 27.1881 22.3368C27.3861 20.84 27.3872 18.783 27.2723 16.944C27.2617 16.7742 27.3907 16.628 27.5605 16.6174Z" fill="#2667FF"/>
<path d="M3.07932 11.9734C3.11925 11.808 3.01756 11.6416 2.85219 11.6017C2.68682 11.5617 2.52039 11.6634 2.48046 11.8288C2.25436 12.7652 2.13699 13.7272 2.13234 14.69C2.12755 15.6825 2.31259 16.6512 2.49771 17.6203C2.64914 18.413 2.80062 19.206 2.84827 20.0124C2.91086 21.0718 2.68805 22.1326 2.30301 23.1423C2.2424 23.3013 2.32212 23.4793 2.48108 23.5399C2.64003 23.6005 2.81804 23.5208 2.87865 23.3618C3.28564 22.2946 3.53234 21.1449 3.46328 19.9761C3.41595 19.1752 3.26449 18.3868 3.11308 17.5987C2.92833 16.6371 2.74366 15.6759 2.74841 14.693C2.75283 13.7781 2.86437 12.8637 3.07932 11.9734Z" fill="#2667FF"/>
<path d="M11.1621 5.12814C11.2255 5.28601 11.1489 5.46538 10.9911 5.52878C7.79758 6.81125 5.39945 9.70531 4.91023 13.118C4.70584 14.5438 4.92666 15.9562 5.14742 17.3681C5.27174 18.1633 5.39604 18.9583 5.44437 19.7555C5.54917 21.4842 5.35226 23.3831 4.2272 25.1107C4.13437 25.2533 3.94354 25.2936 3.80098 25.2008C3.65842 25.108 3.61811 24.9171 3.71094 24.7746C4.73598 23.2005 4.93001 21.4521 4.82943 19.7928C4.78039 18.9839 4.65686 18.1797 4.53341 17.3759C4.31192 15.9339 4.09068 14.4935 4.30039 13.0306C4.82275 9.38673 7.37679 6.31634 10.7615 4.95708C10.9194 4.89368 11.0987 4.97027 11.1621 5.12814Z" fill="#2667FF"/>
<path d="M21.9761 6.8819C19.4567 4.52222 15.8052 3.69865 12.4866 4.42654C12.3205 4.46299 12.2153 4.62725 12.2517 4.79343C12.2882 4.9596 12.4524 5.06476 12.6186 5.02832C15.7611 4.33905 19.1994 5.12532 21.5549 7.33155C23.5403 9.1911 24.6932 11.8969 24.995 14.849C25.0123 15.0182 25.1636 15.1414 25.3328 15.1241C25.502 15.1068 25.6252 14.9556 25.6079 14.7864C25.2945 11.721 24.093 8.8646 21.9761 6.8819Z" fill="#2667FF"/>
<path d="M25.5435 16.2534C25.7127 16.236 25.864 16.3591 25.8814 16.5283C26.1739 19.3767 26.0478 22.4533 25.6062 25.4295C25.5812 25.5978 25.4245 25.714 25.2563 25.689C25.088 25.664 24.9718 25.5074 24.9968 25.3391C25.4323 22.4042 25.5549 19.3799 25.2685 16.5913C25.2511 16.422 25.3742 16.2707 25.5435 16.2534Z" fill="#2667FF"/>
<path d="M14.8041 6.2603C10.0838 6.2603 6.24848 10.0262 6.24848 14.6821C6.24848 15.1795 6.29261 15.6668 6.37674 16.1406C6.40648 16.3081 6.56638 16.4198 6.73389 16.3901C6.90139 16.3603 7.01307 16.2004 6.98333 16.0329C6.90544 15.5942 6.86455 15.143 6.86455 14.6821C6.86455 10.3759 10.4145 6.87638 14.8041 6.87638C16.7878 6.87638 18.6002 7.59135 19.9913 8.77273C20.1209 8.88285 20.3153 8.86701 20.4255 8.73733C20.5356 8.60766 20.5197 8.41327 20.3901 8.30314C18.891 7.03008 16.9382 6.2603 14.8041 6.2603Z" fill="#2667FF"/>
<path d="M21.0802 9.45165C21.203 9.3339 21.398 9.33799 21.5158 9.46078C22.8752 10.8784 23.3104 13.1065 23.5983 14.9763C23.9226 17.0825 23.9721 19.1372 23.9721 20.0899C23.9721 20.26 23.8342 20.3979 23.6641 20.3979C23.494 20.3979 23.3561 20.26 23.3561 20.0899C23.3561 19.1526 23.307 17.1327 22.9894 15.07C22.7221 13.3341 22.3367 11.207 21.0711 9.88719C20.9534 9.7644 20.9574 9.5694 21.0802 9.45165Z" fill="#2667FF"/>
<path d="M23.8939 21.854C23.9074 21.6844 23.7809 21.536 23.6113 21.5225C23.4417 21.509 23.2933 21.6355 23.2798 21.8051C23.1285 23.7025 22.9308 25.5979 22.5297 27.3487C22.4918 27.5146 22.5954 27.6798 22.7612 27.7178C22.927 27.7558 23.0923 27.6521 23.1303 27.4863C23.5419 25.6893 23.7422 23.7565 23.8939 21.854Z" fill="#2667FF"/>
<path d="M6.87257 17.2744C7.03949 17.2415 7.20145 17.3502 7.23432 17.5171C7.88563 20.8246 7.43569 23.8291 5.71092 26.461C5.61767 26.6033 5.42672 26.6431 5.28443 26.5498C5.14214 26.4566 5.10238 26.2656 5.19563 26.1233C6.81846 23.647 7.25521 20.8118 6.62985 17.6361C6.59698 17.4692 6.70565 17.3073 6.87257 17.2744Z" fill="#2667FF"/>
<path d="M14.8041 8.26455C11.74 8.26455 8.73404 10.6364 8.42723 13.6174C8.29291 14.9224 8.4816 16.2079 8.67036 17.4939C8.83519 18.6168 9.00007 19.7402 8.95001 20.8773C8.83544 23.4796 8.07189 25.6278 6.7599 27.3971C6.65856 27.5337 6.6872 27.7266 6.82385 27.828C6.9605 27.9293 7.15343 27.9007 7.25476 27.764C8.64628 25.8875 9.446 23.6184 9.56549 20.9043C9.61533 19.7724 9.44994 18.6526 9.28466 17.5336C9.09566 16.254 8.9068 14.9753 9.04007 13.6804C9.3096 11.0617 12.005 8.88063 14.8041 8.88063C16.1096 8.88063 19.4874 9.58754 20.5619 13.0877C21.2352 15.2811 21.4188 18.2496 21.2557 21.1335C21.0927 24.0171 20.5854 26.775 19.9033 28.5435C19.842 28.7022 19.9211 28.8805 20.0798 28.9418C20.2385 29.003 20.4168 28.9239 20.4781 28.7652C21.1917 26.915 21.7058 24.0872 21.8708 21.1683C22.0359 18.2498 21.8545 15.1992 21.1508 12.9069C19.9581 9.0216 16.2193 8.26455 14.8041 8.26455Z" fill="#2667FF"/>
<path d="M10.0636 26.4615C10.2061 26.5544 10.2463 26.7453 10.1533 26.8878C9.96233 27.1806 9.79429 27.4871 9.62625 27.7935C9.45821 28.0999 9.29014 28.4064 9.09908 28.6993C9.00615 28.8418 8.81529 28.882 8.67279 28.7891C8.5303 28.6961 8.49013 28.5053 8.58307 28.3628C8.77408 28.0699 8.94212 27.7635 9.11016 27.4571C9.27821 27.1506 9.44628 26.8441 9.63733 26.5512C9.73027 26.4087 9.92113 26.3685 10.0636 26.4615Z" fill="#2667FF"/>
<path d="M12.7012 11.4621C12.8427 11.3675 12.8806 11.1762 12.786 11.0348C12.6914 10.8934 12.5001 10.8555 12.3587 10.95C11.1389 11.7659 10.3906 12.8878 10.3906 14.5314C10.3906 15.51 10.564 16.31 10.7418 17.1304C11.0079 18.3582 11.1884 19.5833 11.1559 20.8444C11.1165 22.3757 10.8169 23.7751 10.241 25.1081C10.1735 25.2643 10.2454 25.4456 10.4016 25.5131C10.5577 25.5805 10.739 25.5086 10.8065 25.3525C11.4155 23.943 11.7305 22.4656 11.7718 20.8602C11.8055 19.5498 11.62 18.2762 11.344 17.0001C11.1658 16.1761 11.0067 15.4404 11.0067 14.5314C11.0067 13.1232 11.6262 12.1812 12.7012 11.4621Z" fill="#2667FF"/>
<path d="M13.9035 10.3798C15.1818 10.1192 16.5573 10.4412 17.5698 11.2607C19.3782 12.7245 19.6187 15.3939 19.8136 17.557L19.8236 17.6672C20.0754 20.4555 19.7871 23.1639 19.2064 25.8837C19.1709 26.0501 19.0072 26.1562 18.8408 26.1207C18.6744 26.0851 18.5684 25.9215 18.6039 25.7551C19.1759 23.076 19.4547 20.4321 19.21 17.7226C19.2019 17.6329 19.1938 17.5419 19.1857 17.4499L19.1856 17.4485C19.0124 15.4938 18.7956 13.0455 17.1822 11.7396C16.3166 11.039 15.1294 10.7587 14.0266 10.9835C13.8599 11.0175 13.6972 10.9099 13.6632 10.7432C13.6292 10.5765 13.7368 10.4138 13.9035 10.3798Z" fill="#2667FF"/>
<path d="M18.771 27.4165C18.813 27.2516 18.7134 27.084 18.5485 27.042C18.3836 27 18.216 27.0996 18.174 27.2645C17.9878 27.996 17.7008 28.6562 17.337 29.2641C17.2496 29.4101 17.2971 29.5992 17.4431 29.6866C17.5891 29.774 17.7782 29.7265 17.8656 29.5805C18.2577 28.9254 18.569 28.2101 18.771 27.4165Z" fill="#2667FF"/>
<path d="M17.2647 22.9463C17.4336 22.9663 17.5544 23.1195 17.5344 23.2884C17.2435 25.7469 16.5867 27.9395 15.5328 29.8412C15.4503 29.99 15.2629 30.0438 15.114 29.9613C14.9652 29.8789 14.9115 29.6914 14.9939 29.5426C16.0025 27.7226 16.6393 25.6096 16.9226 23.216C16.9426 23.0471 17.0957 22.9263 17.2647 22.9463Z" fill="#2667FF"/>
<path d="M17.2012 14.3698C16.9876 13.2287 16.0083 12.3558 14.8193 12.3558C13.2093 12.3558 12.0797 13.9787 12.4778 15.4885C13.1513 18.1537 13.2619 20.7224 12.8059 23.1963L12.8056 23.1981C12.4099 25.4194 11.6501 27.4176 10.6136 29.1108C10.5248 29.256 10.5704 29.4456 10.7155 29.5344C10.8606 29.6232 11.0503 29.5776 11.1391 29.4325C12.2179 27.67 13.0036 25.5989 13.412 23.3071C13.8854 20.7377 13.7681 18.0789 13.0747 15.336L13.0738 15.3328C12.7753 14.2033 13.6075 12.9719 14.8193 12.9719C15.6938 12.9719 16.4322 13.6152 16.5953 14.481C17.0436 17.0818 17.2772 19.4935 17.1109 21.57C17.0973 21.7396 17.2238 21.8881 17.3933 21.9016C17.5629 21.9152 17.7114 21.7888 17.725 21.6192C17.8973 19.4669 17.6541 16.9958 17.202 14.3741C17.2017 14.3727 17.2015 14.3712 17.2012 14.3698Z" fill="#2667FF"/>
<path d="M13.9002 27.7112C14.0515 27.7889 14.1111 27.9746 14.0333 28.1259L13.2171 29.7143C13.1394 29.8657 12.9537 29.9253 12.8024 29.8475C12.651 29.7698 12.5914 29.5841 12.6692 29.4328L13.4854 27.8444C13.5631 27.693 13.7488 27.6334 13.9002 27.7112Z" fill="#2667FF"/>
<path d="M15.0484 14.6668C15.0095 14.5012 14.8437 14.3985 14.6781 14.4374C14.5125 14.4763 14.4098 14.6421 14.4487 14.8077C15.4875 19.2296 15.3448 23.1125 14.0795 26.4201C14.0187 26.579 14.0982 26.7571 14.2571 26.8179C14.416 26.8787 14.5941 26.7992 14.6549 26.6403C15.9742 23.1914 16.1083 19.1785 15.0484 14.6668Z" fill="#2667FF"/>
</g>
<defs>
<clipPath id="clip0_352_4722">
<rect width="30" height="30" fill="white"/>
</clipPath>
</defs>
</svg>
