<svg width="48" height="49" viewBox="0 0 48 49" fill="none" xmlns="http://www.w3.org/2000/svg">
<path d="M34.9944 24.4197C34.9944 31.7101 28.7664 37.6821 21.0053 37.6821C13.2443 37.6821 7.01626 31.7101 7.01626 24.4197C7.01626 17.1294 13.2443 11.1574 21.0053 11.1574C28.7664 11.1574 34.9944 17.1294 34.9944 24.4197Z" stroke="#94A3B8" stroke-width="1.45341"/>
<path d="M25.547 12.2471C25.002 13.5188 17.4079 16.5346 19.7334 17.6974C22.0588 18.8601 22.0952 20.0591 23.5486 21.6942C24.6386 24.4194 21.6078 26.1604 23.5486 27.6895C29.5439 32.4131 32.8141 26.7812 34.8125 23.3293" stroke="#94A3B8" stroke-width="1.45341" stroke-linecap="round"/>
<path d="M8.65137 18.606C11.0132 17.637 17.6625 17.1525 18.8252 21.5128C20.2786 26.9631 11.7399 26.5997 21.3687 30.4149C29.0718 33.4671 21.9743 35.5624 21.3687 37.1369" stroke="#94A3B8" stroke-width="1.45341" stroke-linecap="round"/>
<circle cx="36.5682" cy="35.4132" r="2.03678" transform="rotate(3.94727 36.5682 35.4132)" stroke="#94A3B8" stroke-width="0.561872"/>
<path d="M38.2422 36.6553L41.7256 39.009" stroke="#94A3B8" stroke-width="0.842807"/>
</svg>
