<svg width="25" height="24" viewBox="0 0 25 24" fill="none" xmlns="http://www.w3.org/2000/svg">
<path d="M13.5816 10.7934C13.6045 10.709 13.6961 10.6637 13.7771 10.6965L20.2248 13.3082C20.271 13.3269 20.3045 13.3679 20.3135 13.4168L20.5968 14.945C20.6164 15.0508 20.5188 15.1407 20.415 15.1124L13.0991 13.1191C13.0214 13.0979 12.9755 13.0177 12.9967 12.9399L13.5816 10.7934Z" fill="white" stroke="white" stroke-width="0.162122"/>
<path d="M11.7673 10.7827C11.7443 10.6983 11.6528 10.6529 11.5718 10.6858L5.12403 13.2975C5.07786 13.3162 5.04442 13.3571 5.03534 13.4061L4.75206 14.9343C4.73246 15.04 4.83011 15.1299 4.93388 15.1017L12.2498 13.1083C12.3275 13.0871 12.3734 13.0069 12.3522 12.9292L11.7673 10.7827Z" fill="white" stroke="white" stroke-width="0.162122"/>
<path d="M8.77096 18.4683C8.77961 18.4422 8.80092 18.4223 8.82756 18.4153L12.4752 17.4689C12.4885 17.4654 12.5025 17.4654 12.5157 17.4688L16.2051 18.4162C16.2311 18.4229 16.2522 18.442 16.2612 18.4674L16.8806 20.1996C16.9019 20.2589 16.8502 20.3187 16.7884 20.3064L12.5433 19.4585C12.5116 19.4522 12.4788 19.4522 12.4471 19.4587L8.29073 20.3066C8.22969 20.319 8.17801 20.2608 8.19757 20.2017L8.77096 18.4683Z" fill="white" stroke="white" stroke-width="0.162122"/>
<path d="M11.093 4.8002C11.093 4.02226 11.7237 3.39161 12.5016 3.39161C13.2796 3.39161 13.9102 4.02226 13.9102 4.8002V18.126H11.093V4.8002Z" fill="white" stroke="white" stroke-width="0.162122"/>
</svg>
