<svg width="16" height="17" viewBox="0 0 16 17" fill="none" xmlns="http://www.w3.org/2000/svg">
<path d="M12 11.247C11.4933 11.247 11.04 11.447 10.6933 11.7604L5.94 8.99368C5.97333 8.84035 6 8.68702 6 8.52702C6 8.36702 5.97333 8.21369 5.94 8.06035L10.64 5.32035C11 5.65369 11.4733 5.86035 12 5.86035C13.1067 5.86035 14 4.96702 14 3.86035C14 2.75368 13.1067 1.86035 12 1.86035C10.8933 1.86035 10 2.75368 10 3.86035C10 4.02035 10.0267 4.17368 10.06 4.32702L5.36 7.06702C5 6.73369 4.52667 6.52702 4 6.52702C2.89333 6.52702 2 7.42035 2 8.52702C2 9.63369 2.89333 10.527 4 10.527C4.52667 10.527 5 10.3204 5.36 9.98702L10.1067 12.7604C10.0733 12.9004 10.0533 13.047 10.0533 13.1937C10.0533 14.267 10.9267 15.1404 12 15.1404C13.0733 15.1404 13.9467 14.267 13.9467 13.1937C13.9467 12.1204 13.0733 11.247 12 11.247ZM12 3.19368C12.3667 3.19368 12.6667 3.49368 12.6667 3.86035C12.6667 4.22702 12.3667 4.52702 12 4.52702C11.6333 4.52702 11.3333 4.22702 11.3333 3.86035C11.3333 3.49368 11.6333 3.19368 12 3.19368ZM4 9.19369C3.63333 9.19369 3.33333 8.89369 3.33333 8.52702C3.33333 8.16035 3.63333 7.86035 4 7.86035C4.36667 7.86035 4.66667 8.16035 4.66667 8.52702C4.66667 8.89369 4.36667 9.19369 4 9.19369ZM12 13.8737C11.6333 13.8737 11.3333 13.5737 11.3333 13.207C11.3333 12.8404 11.6333 12.5404 12 12.5404C12.3667 12.5404 12.6667 12.8404 12.6667 13.207C12.6667 13.5737 12.3667 13.8737 12 13.8737Z" fill="white"/>
</svg>
