<svg width="41" height="41" viewBox="0 0 41 41" fill="none" xmlns="http://www.w3.org/2000/svg">
<g clip-path="url(#clip0_22_32284)">
<path d="M33.4133 13.8245C33.4133 17.9902 30.0364 21.3678 25.87 21.3678C23.8876 21.3678 22.0834 20.603 20.7367 19.3519L18.4066 17.3148L18.4292 17.2916L18.9209 16.7644L22.9868 12.4068L21.5432 12.2334L21.5452 12.232L21.5084 12.2293L21.5432 12.2334L18.3568 14.4945L16.6031 15.7387L14.0006 13.464C13.9555 13.4162 13.907 13.3731 13.8538 13.3363C13.6892 13.2168 13.4864 13.1471 13.2685 13.1471C12.714 13.1471 12.2647 13.5958 12.2647 14.1503C12.2647 14.4057 12.3609 14.6399 12.5194 14.8175C12.5604 14.8639 12.6068 14.9069 12.6566 14.9452L15.21 17.3203L13.8155 20.0498L12.6723 22.2877L12.6628 22.2556L12.671 22.2897L12.6723 22.2877L13.0684 23.6487L16.0834 20.0123L16.963 18.9504L19.9971 21.7728H19.9978C21.6026 23.1563 22.6181 25.2037 22.6181 27.488V33.4947C22.6181 34.3436 21.9297 35.0313 21.0816 35.0313H9.06801C8.21917 35.0313 7.53149 34.3436 7.53149 33.4947V7.81777C7.53149 6.96893 8.21917 6.28125 9.06801 6.28125H25.87C30.0364 6.28125 33.4133 9.65818 33.4133 13.8245Z" fill="white"/>
</g>
<defs>
<clipPath id="clip0_22_32284">
<rect width="25.8818" height="28.75" fill="white" transform="translate(7.53125 6.28125)"/>
</clipPath>
</defs>
</svg>
