<svg width="24" height="25" viewBox="0 0 24 25" fill="none" xmlns="http://www.w3.org/2000/svg">
<path d="M6.5 9C6.5 8.44772 6.94772 8 7.5 8H16.5C17.0523 8 17.5 8.44772 17.5 9V19C17.5 19.5523 17.0523 20 16.5 20H7.5C6.94771 20 6.5 19.5523 6.5 19V9Z" stroke="#0F172A" stroke-linecap="round" stroke-linejoin="round"/>
<path d="M8.5 20V21C8.5 21.5523 8.94772 22 9.5 22V22C10.0523 22 10.5 21.5523 10.5 21V20" stroke="#0F172A" stroke-linecap="round" stroke-linejoin="round"/>
<path d="M13.5 20V21C13.5 21.5523 13.9477 22 14.5 22V22C15.0523 22 15.5 21.5523 15.5 21V20" stroke="#0F172A" stroke-linecap="round" stroke-linejoin="round"/>
<path d="M9.5 8V5C9.5 4.44772 9.94772 4 10.5 4H13.5C14.0523 4 14.5 4.44772 14.5 5V8" stroke="#0F172A" stroke-linecap="round" stroke-linejoin="round"/>
</svg>
