<svg width="24" height="24" viewBox="0 0 24 24" fill="none" xmlns="http://www.w3.org/2000/svg">
<path d="M2.81378 17.749H12.7448" stroke="#0F172A" stroke-width="0.331034" stroke-linecap="round"/>
<circle cx="17.7931" cy="15.8072" r="1.98621" stroke="#0F172A" stroke-width="0.165517"/>
<path d="M16.5517 15.8073L17.6276 16.7177L18.9517 14.7314" stroke="#0F172A" stroke-width="0.165517" stroke-linecap="round"/>
<path d="M12.2344 11.9029C12.3418 11.8552 12.3517 11.7066 12.2514 11.6451L7.21221 8.55592C7.18926 8.54185 7.16286 8.5344 7.13595 8.5344L6.00311 8.5344C5.86687 8.5344 5.80496 8.70456 5.90935 8.79211L10.4539 12.6037C10.4966 12.6395 10.5559 12.6479 10.6069 12.6253L12.2344 11.9029Z" fill="#0F172A" stroke="#0F172A" stroke-width="0.162122"/>
<path d="M7.97421 15.0018C8.07111 14.943 8.06684 14.801 7.96659 14.7481L5.42256 13.4054C5.38911 13.3877 5.3501 13.3837 5.31378 13.3943L3.29453 13.9805C3.17652 14.0148 3.15112 14.1707 3.25216 14.2406L5.96639 16.1197C6.01374 16.1525 6.07594 16.1543 6.12517 16.1245L7.97421 15.0018Z" fill="#0F172A" stroke="#0F172A" stroke-width="0.162122"/>
<path d="M18.6279 6.6983C19.1415 6.32323 19.8608 6.42775 20.2464 6.9335C20.6438 7.45465 20.535 8.20062 20.0054 8.58662L9.53581 16.2169L6.88712 16.7715L5.84876 16.0298L18.6279 6.6983Z" fill="#0F172A" stroke="#0F172A" stroke-width="0.162122"/>
</svg>
