<svg width="25" height="24" viewBox="0 0 25 24" fill="none" xmlns="http://www.w3.org/2000/svg">
<rect x="2.5" y="6" width="20" height="10" rx="2" fill="#0F172A"/>
<path d="M6.62427 18.041H21.3553" stroke="#0F172A" stroke-width="0.662069" stroke-linecap="round"/>
<path d="M10.9468 11.578C10.9765 11.5842 10.9902 11.6144 10.9757 11.6418L9.81247 13.8357C9.80392 13.8518 9.78718 13.8634 9.76866 13.866L9.03745 13.9696C9.00142 13.9747 8.97531 13.9449 8.98701 13.9121L9.8807 11.4064C9.88992 11.3805 9.91917 11.3641 9.94603 11.3697L10.9468 11.578Z" fill="white" stroke="#0F172A" stroke-width="0.0552026"/>
<path d="M10.9517 10.9527C10.9814 10.9466 10.9951 10.9164 10.9806 10.889L9.81735 8.69509C9.8088 8.67896 9.79206 8.66736 9.77354 8.66474L9.04234 8.56119C9.0063 8.55609 8.98019 8.58583 8.99189 8.61864L9.88559 11.1244C9.8948 11.1502 9.92405 11.1666 9.95091 11.1611L10.9517 10.9527Z" fill="white" stroke="#0F172A" stroke-width="0.0552026"/>
<path d="M7.70069 9.94019C7.71023 9.9422 7.71799 9.94909 7.72113 9.95832L8.14145 11.1958C8.1434 11.2015 8.14341 11.2077 8.14148 11.2135L7.72085 12.4648C7.71779 12.474 7.7102 12.4808 7.70083 12.483L6.70689 12.7095C6.68669 12.7141 6.66881 12.6956 6.67405 12.6756L7.05311 11.2257C7.05674 11.2118 7.0567 11.1972 7.053 11.1834L6.67418 9.76473C6.66887 9.74484 6.68641 9.72635 6.70654 9.7306L7.70069 9.94019Z" fill="white" stroke="#0F172A" stroke-width="0.0552026"/>
<path d="M13.4104 10.7864C13.6694 10.7864 13.8794 10.9963 13.8794 11.2553C13.8794 11.5143 13.6694 11.7243 13.4104 11.7243L7.64493 11.7243L7.64493 10.7864L13.4104 10.7864Z" fill="white" stroke="#0F172A" stroke-width="0.0552026"/>
<circle cx="17.7966" cy="9.18624" r="0.57931" fill="white"/>
<circle cx="17.7966" cy="11.3376" r="0.57931" fill="white"/>
<circle cx="17.7966" cy="13.4895" r="0.57931" fill="white"/>
<rect x="2.32078" y="6.28953" width="20.1931" height="9.93103" rx="2.15172" stroke="#0F172A" stroke-width="0.662069"/>
</svg>
