<svg width="24" height="24" viewBox="0 0 24 24" fill="none" xmlns="http://www.w3.org/2000/svg">
<path d="M6.12416 6.538C6.59312 6.62075 7.5145 6.85248 7.44829 7.11731C7.36554 7.44834 6.53795 7.69662 7.20002 8.60696C7.86209 9.51731 7.94485 8.68972 8.60692 9.76558C9.26898 10.8414 5.87588 12.4966 5.21381 12.2483C4.68416 12.0497 4.38623 12.607 4.30347 12.9104L4.96554 13.3242C5.65519 13.5173 7.0014 14.0525 6.86898 14.6483C6.70347 15.3932 5.87588 15.7242 6.86898 16.0552C7.86209 16.3863 9.35174 17.4621 9.51726 18.2897C9.64967 18.9518 10.5655 19.1725 11.0069 19.2001M13.2414 5.04834C12.5517 5.10351 11.0069 5.34627 10.3448 5.87593C9.51726 6.538 9.35174 8.60696 9.84829 9.02075C10.3448 9.43455 10.2621 9.68282 11.1724 9.9311C12.0828 10.1794 12.8276 11.5035 13.2414 11.5863C13.5724 11.6525 15.0345 12.0552 15.7242 12.2483L18.2069 10.9242M17.2138 15.807C16.5793 15.5863 15.3269 15.0952 15.3931 14.8966C15.4759 14.6483 14.4828 13.738 15.3931 13.3242C16.3035 12.9104 16.9655 12.9104 17.7931 12.2483C18.4552 11.7187 18.4828 11.5587 18.4552 11.338" stroke="#0F172A" stroke-width="0.662069" stroke-linecap="round"/>
<circle cx="11.0615" cy="11.917" r="7.44828" stroke="#0F172A" stroke-width="0.662069"/>
<path d="M3.61326 11.2549C1.29602 13.4066 -0.910341 18.7032 9.10345 16.3032" stroke="#0F172A" stroke-width="0.662069" stroke-linecap="round"/>
<path d="M16.1013 10.5444C16.1811 10.5089 16.1884 10.3985 16.1139 10.3529L12.3707 8.05817C12.3537 8.04772 12.3341 8.04219 12.3141 8.04219L11.4726 8.04219C11.3714 8.04219 11.3254 8.16858 11.4029 8.23362L14.7787 11.0649C14.8104 11.0915 14.8545 11.0977 14.8923 11.0809L16.1013 10.5444Z" fill="#0F172A" stroke="#0F172A" stroke-width="0.120428"/>
<path d="M12.9368 12.847C13.0087 12.8033 13.0056 12.6979 12.9311 12.6585L11.0414 11.6612C11.0165 11.6481 10.9875 11.6451 10.9606 11.6529L9.46062 12.0884C9.37296 12.1139 9.35409 12.2297 9.42915 12.2816L11.4453 13.6774C11.4805 13.7018 11.5267 13.7032 11.5633 13.681L12.9368 12.847Z" fill="#0F172A" stroke="#0F172A" stroke-width="0.120428"/>
<path d="M20.8505 6.67888C21.232 6.40027 21.7663 6.47791 22.0527 6.85359C22.3479 7.24071 22.2671 7.79483 21.8737 8.08156L14.0967 13.7495L12.1292 14.1614L11.3579 13.6105L20.8505 6.67888Z" fill="#0F172A" stroke="#0F172A" stroke-width="0.120428"/>
</svg>
